<?xml version="1.0" encoding="UTF-8"?> <svg xmlns="http://www.w3.org/2000/svg" width="27" height="27" viewBox="0 0 27 27" fill="none"><g clip-path="url(#clip0)"><path d="M21.8841 21.0728C21.8814 20.969 21.8588 20.8667 21.8154 20.77C21.7344 20.5897 22.0979 21.0137 15.6122 14.0062C17.13 12.7533 17.2302 10.4881 15.8575 9.0758C15.4178 8.62344 14.8785 8.31262 14.2914 8.16555V5.85352H15.6098C16.0165 5.85352 16.357 5.54502 16.397 5.14023L16.8189 0.868746C16.8648 0.402943 16.4984 0 16.0316 0H10.9691C10.5015 0 10.136 0.403945 10.182 0.868746L10.6038 5.14023C10.6438 5.54502 10.9843 5.85352 11.391 5.85352H12.7094V8.85938C12.7094 9.29623 13.0635 9.65039 13.5004 9.65039C14.4437 9.65039 15.2406 10.4715 15.2406 11.4434C15.2406 12.4029 14.4599 13.1836 13.5004 13.1836C12.9167 13.1836 12.3747 12.893 12.0504 12.4062C11.8082 12.0426 11.3172 11.9442 10.9536 12.1864C10.59 12.4285 10.4916 12.9197 10.7338 13.2833C10.9177 13.5594 11.1387 13.8022 11.3875 14.0074C4.92445 20.9904 5.30129 20.5734 5.24059 20.6681C5.18681 20.7521 5.14762 20.8485 5.12874 20.9535C5.10981 21.0594 5.11561 20.6416 5.11561 26.209C5.11561 26.6458 5.46978 27 5.90663 27H21.0941C21.531 27 21.8851 26.6458 21.8851 26.209C21.8851 20.5506 21.8857 21.1334 21.8841 21.0728ZM11.8421 1.58203H15.1586L14.893 4.27148H12.1077L11.8421 1.58203ZM14.1071 14.7091L19.2842 20.3027H7.71653L12.8928 14.7098C13.2821 14.7819 13.6883 14.7868 14.1071 14.7091ZM20.3031 25.418H6.69765V21.8848H20.3031V25.418Z" fill="black"></path></g><defs><clipPath id="clip0"><rect width="27" height="27" fill="white"></rect></clipPath></defs></svg> 