<?xml version="1.0" encoding="UTF-8"?> <svg xmlns="http://www.w3.org/2000/svg" width="28" height="28" viewBox="0 0 28 28" fill="none"><path d="M10.7188 18.1562C10.7188 16.347 9.24678 14.875 7.4375 14.875C5.62822 14.875 4.15625 16.347 4.15625 18.1562C4.15625 19.9655 5.62822 21.4375 7.4375 21.4375C9.24678 21.4375 10.7188 19.9655 10.7188 18.1562ZM7.4375 19.7969C6.53286 19.7969 5.79688 19.0609 5.79688 18.1562C5.79688 17.2516 6.53286 16.5156 7.4375 16.5156C8.34214 16.5156 9.07812 17.2516 9.07812 18.1562C9.07812 19.0609 8.34214 19.7969 7.4375 19.7969Z" fill="#C1C1C1"></path><path d="M7.4375 21.4375C4.27126 21.4375 1.69531 24.0134 1.69531 27.1797C1.69531 27.6327 2.06259 28 2.51562 28H12.3594C12.8124 28 13.1797 27.6327 13.1797 27.1797C13.1797 24.0134 10.6037 21.4375 7.4375 21.4375ZM3.41835 26.3594C3.79947 24.4896 5.45677 23.0781 7.4375 23.0781C9.41823 23.0781 11.0755 24.4896 11.4566 26.3594H3.41835Z" fill="#C1C1C1"></path><path d="M23.8438 18.1562C23.8438 16.347 22.3718 14.875 20.5625 14.875C18.7532 14.875 17.2812 16.347 17.2812 18.1562C17.2812 19.9655 18.7532 21.4375 20.5625 21.4375C22.3718 21.4375 23.8438 19.9655 23.8438 18.1562ZM20.5625 19.7969C19.6579 19.7969 18.9219 19.0609 18.9219 18.1562C18.9219 17.2516 19.6579 16.5156 20.5625 16.5156C21.4671 16.5156 22.2031 17.2516 22.2031 18.1562C22.2031 19.0609 21.4671 19.7969 20.5625 19.7969Z" fill="#C1C1C1"></path><path d="M20.5625 21.4375C17.3963 21.4375 14.8203 24.0134 14.8203 27.1797C14.8203 27.6327 15.1876 28 15.6406 28H25.4844C25.9374 28 26.3047 27.6327 26.3047 27.1797C26.3047 24.0134 23.7287 21.4375 20.5625 21.4375ZM16.5434 26.3594C16.9245 24.4896 18.5818 23.0781 20.5625 23.0781C22.5432 23.0781 24.2005 24.4896 24.5816 26.3594H16.5434Z" fill="#C1C1C1"></path><path d="M10.6641 3.28125H4.10156C3.64853 3.28125 3.28125 3.64853 3.28125 4.10156C3.28125 4.55459 3.64853 4.92188 4.10156 4.92188H10.6641C11.1171 4.92188 11.4844 4.55459 11.4844 4.10156C11.4844 3.64853 11.1171 3.28125 10.6641 3.28125Z" fill="#C1C1C1"></path><path d="M10.6641 6.5625H4.10156C3.64853 6.5625 3.28125 6.92978 3.28125 7.38281C3.28125 7.83584 3.64853 8.20312 4.10156 8.20312H10.6641C11.1171 8.20312 11.4844 7.83584 11.4844 7.38281C11.4844 6.92978 11.1171 6.5625 10.6641 6.5625Z" fill="#C1C1C1"></path><path d="M23.8984 3.28125H17.3359C16.8829 3.28125 16.5156 3.64853 16.5156 4.10156C16.5156 4.55459 16.8829 4.92188 17.3359 4.92188H23.8984C24.3515 4.92188 24.7188 4.55459 24.7188 4.10156C24.7188 3.64853 24.3515 3.28125 23.8984 3.28125Z" fill="#C1C1C1"></path><path d="M23.8984 6.5625H17.3359C16.8829 6.5625 16.5156 6.92978 16.5156 7.38281C16.5156 7.83584 16.8829 8.20312 17.3359 8.20312H23.8984C24.3515 8.20312 24.7188 7.83584 24.7188 7.38281C24.7188 6.92978 24.3515 6.5625 23.8984 6.5625Z" fill="#C1C1C1"></path><path d="M25.5391 0H2.46094C1.10398 0 0 1.10398 0 2.46094V9.02344C0 10.3804 1.10398 11.4844 2.46094 11.4844H5.40241L6.8028 12.8848C7.1231 13.2051 7.64252 13.2051 7.96288 12.8848L9.36321 11.4844H18.6367L20.0371 12.8848C20.3574 13.2051 20.8768 13.2051 21.1972 12.8848L22.5976 11.4844H25.5391C26.896 11.4844 28 10.3804 28 9.02344V2.46094C28 1.10398 26.896 0 25.5391 0ZM26.3594 9.02344C26.3594 9.47576 25.9914 9.84375 25.5391 9.84375H22.2578C22.0403 9.84375 21.8316 9.93016 21.6778 10.084L20.6172 11.1446L19.5566 10.084C19.4027 9.93016 19.1941 9.84375 18.9766 9.84375H9.02344C8.80589 9.84375 8.59726 9.93016 8.44342 10.084L7.38281 11.1446L6.3222 10.084C6.16837 9.93016 5.95973 9.84375 5.74219 9.84375H2.46094C2.00862 9.84375 1.64062 9.47576 1.64062 9.02344V2.46094C1.64062 2.00862 2.00862 1.64062 2.46094 1.64062H25.5391C25.9914 1.64062 26.3594 2.00862 26.3594 2.46094V9.02344Z" fill="#C1C1C1"></path></svg> 