<?xml version="1.0" encoding="UTF-8"?> <svg xmlns="http://www.w3.org/2000/svg" width="22" height="22" viewBox="0 0 22 22" fill="none"><g clip-path="url(#clip0)"><path d="M21.729 22V21.9991H21.7344V14.1503C21.7344 10.3106 20.9077 7.35278 16.4189 7.35278C14.261 7.35278 12.8128 8.53697 12.2216 9.65963H12.1592V7.71125H7.90308V21.9991H12.3349V14.9243C12.3349 13.0615 12.688 11.2602 14.9948 11.2602C17.2678 11.2602 17.3017 13.3861 17.3017 15.0438V22H21.729Z" fill="#7B7B7B"></path><path d="M0.686523 7.71191H5.12366V21.9997H0.686523V7.71191Z" fill="#7B7B7B"></path><path d="M2.90328 0.598877C1.48457 0.598877 0.333374 1.75007 0.333374 3.16878C0.333374 4.58749 1.48457 5.76276 2.90328 5.76276C4.32198 5.76276 5.47318 4.58749 5.47318 3.16878C5.47229 1.75007 4.32109 0.598877 2.90328 0.598877V0.598877Z" fill="#7B7B7B"></path></g><defs><clipPath id="clip0"><rect width="21.401" height="21.401" fill="white" transform="translate(0.333374 0.598877)"></rect></clipPath></defs></svg> 