<?xml version="1.0" encoding="UTF-8"?> <svg xmlns="http://www.w3.org/2000/svg" width="148" height="47" viewBox="0 0 148 47" fill="none"><path d="M15.9514 37.0798H17.2611V42.8389H20.9178V37.0798H22.2275V44.1506H20.9178V42.9595C20.9027 43.1254 20.8572 43.2761 20.7815 43.4269C20.7058 43.5701 20.6074 43.6983 20.4938 43.8113C20.3727 43.9169 20.244 44.0073 20.0926 44.0676C19.9412 44.1279 19.7822 44.1581 19.6156 44.1581H17.2611C17.087 44.1581 16.9129 44.1204 16.7539 44.0526C16.5949 43.9847 16.4587 43.8943 16.3375 43.7737C16.2164 43.653 16.1255 43.5174 16.0574 43.3591C15.9893 43.2008 15.9514 43.0274 15.9514 42.8465V37.0798Z" fill="black"></path><path d="M28.7006 42.8389V41.2031H25.589C25.4073 41.2031 25.2332 41.1654 25.0742 41.0976C24.9152 41.0298 24.779 40.9393 24.6578 40.8187C24.5367 40.6981 24.4459 40.5624 24.3777 40.4041C24.3096 40.2458 24.2717 40.0724 24.2717 39.8915V38.3839C24.2717 38.203 24.3096 38.0296 24.3777 37.8713C24.4459 37.713 24.5367 37.5773 24.6578 37.4567C24.779 37.3361 24.9152 37.2456 25.0742 37.1778C25.2332 37.11 25.4073 37.0723 25.589 37.0723H29.7378V38.3764H25.589V39.884H28.7006C28.8823 39.884 29.0489 39.9217 29.2078 39.9895C29.3668 40.0573 29.5031 40.1478 29.6242 40.2684C29.7454 40.389 29.8362 40.5247 29.9043 40.683C29.9725 40.8413 30.0103 41.0147 30.0103 41.1956V42.8314C30.0103 43.0123 29.9725 43.1857 29.9043 43.344C29.8362 43.5023 29.7378 43.6455 29.6242 43.7585C29.5031 43.8792 29.3668 43.9696 29.2078 44.0375C29.0489 44.1053 28.8823 44.143 28.7006 44.143H24.2717V42.8389H28.7006Z" fill="black"></path><path d="M33.8866 34.3586L33.8941 38.6855L35.2342 38.1126V39.281L33.8866 39.8539V44.1506H32.5768V40.4117L31.2368 40.9846V39.8162L32.5844 39.2433V34.3586H33.8866Z" fill="black"></path><path d="M36.5891 37.0798H37.8988V42.8389H41.5555V37.0798H42.8652V44.1506H41.5555V42.9595C41.5404 43.1254 41.4949 43.2761 41.4192 43.4269C41.3435 43.5701 41.2451 43.6983 41.1315 43.8113C41.0104 43.9169 40.8817 44.0073 40.7303 44.0676C40.5789 44.1279 40.4199 44.1581 40.2533 44.1581H37.8988C37.7247 44.1581 37.5506 44.1204 37.3916 44.0526C37.2326 43.9847 37.0963 43.8943 36.9752 43.7737C36.8541 43.653 36.7632 43.5174 36.6951 43.3591C36.627 43.2008 36.5891 43.0274 36.5891 42.8465V37.0798Z" fill="black"></path><path d="M45.0532 38.3839C45.0532 38.203 45.0911 38.0296 45.1592 37.8713C45.2274 37.713 45.3182 37.5773 45.4393 37.4567C45.5605 37.3361 45.6967 37.2456 45.8557 37.1778C46.0147 37.11 46.1813 37.0723 46.363 37.0723H48.7175C48.8916 37.0723 49.0581 37.1024 49.2096 37.1703C49.3685 37.2306 49.5048 37.321 49.6184 37.4341C49.7395 37.5472 49.8303 37.6828 49.9061 37.8336C49.9818 37.9844 50.0196 38.1502 50.0196 38.3236V37.0723H51.3294V45.6883C51.3294 45.8692 51.2915 46.0426 51.2234 46.2009C51.1552 46.3592 51.0644 46.5024 50.9432 46.6155C50.8221 46.7286 50.6858 46.8266 50.5269 46.8944C50.3679 46.9622 50.1937 46.9999 50.012 46.9999H45.8784V45.6958H50.0272V43.8716H46.3705C46.1964 43.8716 46.0223 43.8339 45.8633 43.7661C45.7043 43.6982 45.568 43.6078 45.4469 43.4872C45.3258 43.3666 45.2349 43.2309 45.1668 43.0726C45.0986 42.9143 45.0608 42.7409 45.0608 42.56V38.3839H45.0532ZM50.0196 42.5675V38.3839H46.363V42.5675H50.0196Z" fill="black"></path><path d="M53.5249 34.3586H54.9709V35.7155H53.5249V34.3586ZM54.9028 37.0799V44.1506H53.593V37.0799H54.9028Z" fill="black"></path><path d="M61.2471 38.384C61.2471 38.203 61.2849 38.0297 61.3531 37.8714C61.4212 37.7131 61.512 37.5774 61.6332 37.4568C61.7543 37.3362 61.8906 37.2457 62.0496 37.1779C62.2086 37.11 62.3751 37.0723 62.5568 37.0723H66.2135V34.3511H67.5232V44.1431H66.2135V42.952C66.1983 43.1179 66.1529 43.2686 66.0772 43.4194C66.0015 43.5626 65.9031 43.6908 65.7895 43.8038C65.6684 43.9094 65.5397 43.9998 65.3883 44.0601C65.2368 44.1204 65.0779 44.1506 64.9113 44.1506H62.5568C62.3827 44.1506 62.2086 44.1129 62.0496 44.0451C61.8906 43.9772 61.7543 43.8868 61.6332 43.7662C61.512 43.6455 61.4212 43.5099 61.3531 43.3516C61.2849 43.1933 61.2471 43.0199 61.2471 42.839V38.384ZM62.5492 42.839H66.2059V38.384H62.5492V42.839Z" fill="black"></path><path d="M69.5672 37.0798H75.4421V37.4341L71.6643 42.8389H75.4421V44.143H69.4385V43.7963L73.2163 38.3915H69.5672V37.0798Z" fill="black"></path><path d="M78.8262 44.143L76.5322 37.0723H77.8571L79.5378 42.4017L81.1049 37.0723H82.445L84.0121 42.4017L85.6928 37.0723H87.0177L84.7238 44.143H83.361L81.7712 38.9568L80.1889 44.143H78.8262Z" fill="black"></path><path d="M88.3879 34.3586H89.834V35.7155H88.3879V34.3586ZM89.7658 37.0799V44.1506H88.4561V37.0799H89.7658Z" fill="black"></path><path d="M92.022 38.3839C92.022 38.203 92.0598 38.0296 92.128 37.8713C92.1961 37.713 92.2869 37.5773 92.4081 37.4567C92.5292 37.3361 92.6655 37.2456 92.8245 37.1778C92.9835 37.11 93.15 37.0723 93.3317 37.0723H95.6862C95.8603 37.0723 96.0269 37.1024 96.1783 37.1703C96.3373 37.2306 96.4736 37.321 96.5871 37.4341C96.7082 37.5472 96.7991 37.6828 96.8748 37.8336C96.9505 37.9844 96.9884 38.1502 96.9884 38.3236V37.0723H98.2981V45.6883C98.2981 45.8692 98.2602 46.0426 98.1921 46.2009C98.124 46.3592 98.0331 46.5024 97.912 46.6155C97.7909 46.7286 97.6546 46.8266 97.4956 46.8944C97.3366 46.9622 97.1625 46.9999 96.9808 46.9999H92.832V45.6958H96.9808V43.8716H93.3241C93.15 43.8716 92.9759 43.8339 92.8169 43.7661C92.6579 43.6982 92.5216 43.6078 92.4005 43.4872C92.2794 43.3666 92.1885 43.2309 92.1204 43.0726C92.0523 42.9143 92.0144 42.7409 92.0144 42.56V38.3839H92.022ZM96.9884 42.5675V38.3839H93.3317V42.5675H96.9884Z" fill="black"></path><path d="M106.618 42.8389C106.618 43.0198 106.588 43.1932 106.512 43.3515C106.444 43.5098 106.353 43.653 106.232 43.7661C106.111 43.8867 105.975 43.9772 105.816 44.045C105.657 44.1128 105.49 44.1505 105.309 44.1505H101.781C101.607 44.1505 101.432 44.1128 101.273 44.045C101.114 43.9772 100.978 43.8867 100.857 43.7661C100.736 43.6455 100.645 43.5098 100.577 43.3515C100.509 43.1932 100.471 43.0198 100.471 42.8389V38.3839C100.471 38.203 100.509 38.0296 100.577 37.8713C100.645 37.713 100.736 37.5773 100.857 37.4567C100.978 37.3361 101.114 37.2456 101.273 37.1778C101.432 37.11 101.599 37.0723 101.781 37.0723H105.309C105.49 37.0723 105.664 37.11 105.816 37.1778C105.975 37.2456 106.111 37.3361 106.232 37.4567C106.353 37.5773 106.444 37.713 106.512 37.8713C106.581 38.0296 106.618 38.203 106.618 38.3839V42.8389ZM101.788 38.3839V42.8389H105.316V38.3839H101.788Z" fill="black"></path><path d="M110.282 44.143L107.989 37.0723H109.313L110.994 42.4017L112.561 37.0723H113.901L115.468 42.4017L117.149 37.0723H118.474L116.18 44.143H114.817L113.227 38.9568L111.645 44.143H110.282Z" fill="black"></path><path d="M125.84 41.2785H121.139V42.8389H125.84V44.143H121.139C120.965 44.143 120.791 44.1053 120.632 44.0374C120.473 43.9696 120.337 43.8791 120.215 43.7585C120.094 43.6379 120.003 43.5022 119.935 43.3439C119.867 43.1856 119.829 43.0123 119.829 42.8313V38.3763C119.829 38.1954 119.867 38.022 119.935 37.8637C120.003 37.7054 120.094 37.5698 120.215 37.4491C120.337 37.3285 120.473 37.2381 120.632 37.1702C120.791 37.1024 120.957 37.0647 121.139 37.0647H124.523C124.705 37.0647 124.879 37.1024 125.038 37.1702C125.197 37.2381 125.333 37.3285 125.454 37.4491C125.576 37.5698 125.666 37.7054 125.735 37.8637C125.803 38.022 125.84 38.1954 125.84 38.3763V41.2785ZM121.147 38.3839V39.9669H124.531V38.3839H121.147Z" fill="black"></path><path d="M19.8353 9.66383V6.44507C19.8353 2.23128 17.6019 0 13.3775 0H0V24.4988H5.14052V16.1089H13.3775C17.6019 16.1089 19.8353 13.8776 19.8353 9.66383ZM14.6948 6.60337V9.50553C14.6948 10.086 14.5888 10.5081 14.3995 10.6966C14.2102 10.885 13.7863 10.9905 13.2033 10.9905H5.14052V5.11836H13.2033C13.9907 5.11836 14.2935 5.29928 14.3995 5.41235C14.5963 5.6008 14.6948 6.02294 14.6948 6.60337Z" fill="#FBD300"></path><path d="M35.2114 0H30.6614L21.1753 24.4988H26.4521L28.4659 19.2975L30.4343 14.1791L32.9402 7.76423L35.431 14.1791L37.4069 19.2975L39.4207 24.4988H44.7051L35.2114 0Z" fill="#FBD300"></path><path d="M49.5504 5.11836H61.1034L49.0962 22.2977V24.4988H69.2797V19.3804H57.2726L69.2797 2.2162V0H49.5504V5.11836Z" fill="#FBD300"></path><path d="M95.4062 1.22117C95.0276 0.851804 94.5885 0.557819 94.0889 0.339214C93.5741 0.113071 93.0214 0 92.446 0H79.4774C78.902 0 78.3493 0.113071 77.8345 0.339214C77.3349 0.557819 76.8882 0.851804 76.5097 1.22117C76.1235 1.59808 75.8207 2.04282 75.6087 2.54788C75.3892 3.06047 75.2832 3.60321 75.2832 4.16857V20.3152C75.2832 20.8805 75.3968 21.4308 75.6087 21.9358C75.8283 22.4409 76.1235 22.8856 76.5097 23.2626C76.8958 23.6395 77.3424 23.941 77.8421 24.1596C78.3569 24.3782 78.902 24.4913 79.4698 24.4913H92.4385C93.0063 24.4913 93.5589 24.3782 94.0662 24.1671C94.5734 23.9561 95.0201 23.6545 95.3986 23.2701C95.7771 22.8932 96.08 22.4484 96.2995 21.9434C96.5191 21.4308 96.6326 20.8881 96.6326 20.3227V4.1761C96.6326 3.61075 96.5191 3.06047 96.2995 2.54788C96.0875 2.04282 95.7847 1.59808 95.4062 1.22117ZM91.4921 5.11836V19.3804H80.4162V5.11836H91.4921Z" fill="#FBD300"></path><path d="M108.64 14.2771V9.60353V0H103.492V11.3524V16.0335V24.4988H120.306V19.3804H108.64V14.2771Z" fill="#FBD300"></path><path d="M138.514 0H133.964L124.478 24.4988H129.755L131.768 19.2975L133.737 14.1791L136.243 7.76423L138.726 14.1791L140.709 19.2975L142.723 24.4988H148L138.514 0Z" fill="#FBD300"></path><path d="M104.847 15.0912V10.0633L112.539 8.55566V13.5836L104.847 15.0912Z" fill="#FBD300"></path></svg> 