<svg xmlns="http://www.w3.org/2000/svg" width="18" height="18" viewBox="0 0 18 18"><g><g clip-path="url(#clip-A3E8EBC2-99CD-FC50-9106-7D8C8EFE8EF0)"><path fill="#fff" d="M17.182.818L16.604.24a.817.817 0 0 0-1.157 0L9.29 6.397a.818.818 0 0 1-1.158 0L1.975.24a.817.817 0 0 0-1.157 0L.24.818a.817.817 0 0 0 0 1.157l6.157 6.157c.32.32.32.838 0 1.158L.24 15.447a.817.817 0 0 0 0 1.157l.578.578c.32.32.837.32 1.157 0l6.157-6.157a.818.818 0 0 1 1.158 0l6.157 6.157c.32.32.837.32 1.157 0l.578-.578a.817.817 0 0 0 0-1.157L11.025 9.29a.818.818 0 0 1 0-1.158l6.157-6.157a.817.817 0 0 0 0-1.157"/></g></g></svg>